<?xml version="1.0" standalone="no"?>
<!DOCTYPE svg PUBLIC "-//W3C//DTD SVG 20010904//EN"
 "http://www.w3.org/TR/2001/REC-SVG-20010904/DTD/svg10.dtd">
<svg version="1.0" xmlns="http://www.w3.org/2000/svg"
 width="480.000000pt" height="523.000000pt" viewBox="0 0 480.000000 523.000000"
 preserveAspectRatio="xMidYMid meet">

<g transform="translate(0.000000,523.000000) scale(0.100000,-0.100000)"
fill="#000000" stroke="none">
<path d="M1395 4052 c-24 -5 -65 -41 -65 -57 0 -7 -20 -15 -47 -18 -29 -3 -52
-12 -60 -23 -8 -11 -13 -13 -13 -5 0 7 -6 11 -14 8 -7 -3 -23 7 -34 23 -40 53
-127 47 -157 -11 -25 -48 5 -95 68 -108 31 -7 32 -8 37 -71 9 -111 69 -179
181 -202 49 -10 60 -9 94 8 21 10 48 31 59 47 21 28 21 28 -9 100 -6 14 -2 20
14 24 14 4 24 16 28 35 3 16 14 33 24 39 23 12 24 34 4 72 -7 15 -13 45 -12
67 1 22 -3 44 -9 50 -14 14 -65 27 -89 22z m-79 -108 c-4 -9 -9 -15 -11 -12
-3 3 -3 13 1 22 4 9 9 15 11 12 3 -3 3 -13 -1 -22z m35 -51 c13 -16 12 -17 -3
-4 -10 7 -18 15 -18 17 0 8 8 3 21 -13z m-171 4 c0 -2 -10 -12 -22 -23 l-23
-19 19 23 c18 21 26 27 26 19z m227 -43 c-3 -3 -12 -4 -19 -1 -8 3 -5 6 6 6
11 1 17 -2 13 -5z"/>
<path d="M2698 3829 c94 -94 172 -171 172 -172 0 -1 -29 0 -65 1 l-65 4 0
-169 0 -168 155 0 156 0 -3 170 -3 170 45 -3 45 -4 -170 171 -170 171 -135 0
-135 0 173 -171z m342 -86 l75 -78 -77 75 -78 74 -32 -18 -33 -18 25 21 c14
11 30 21 35 21 6 0 44 -35 85 -77z m-150 32 c0 -2 -10 -9 -22 -15 -22 -11 -22
-10 -4 4 21 17 26 19 26 11z m100 -270 c0 -2 -10 -9 -22 -15 -22 -11 -22 -10
-4 4 21 17 26 19 26 11z m-65 -41 c-26 -20 -55 -36 -55 -30 0 5 63 46 70 46 3
-1 -4 -8 -15 -16z m-80 -50 c-26 -20 -55 -36 -55 -30 0 5 63 46 70 46 3 -1 -4
-8 -15 -16z m-70 -44 c-3 -5 -12 -10 -18 -10 -7 0 -6 4 3 10 19 12 23 12 15 0z"/>
<path d="M2413 3748 c-57 -55 -103 -103 -103 -105 0 -1 10 -3 21 -3 24 0 212
177 206 194 -8 24 -28 10 -124 -86z"/>
<path d="M2218 3663 c18 -2 45 -2 60 0 15 2 0 4 -33 4 -33 0 -45 -2 -27 -4z"/>
<path d="M1170 3479 c-65 -11 -71 -17 -104 -91 l-25 -57 63 -50 c73 -58 76
-67 76 -223 0 -90 2 -98 19 -98 14 0 18 -5 14 -20 -3 -11 -14 -20 -25 -20 -13
0 -26 -15 -41 -47 -21 -46 -22 -60 -22 -418 -1 -204 -5 -376 -9 -383 -13 -21
-8 -512 8 -727 8 -110 12 -212 9 -226 -5 -29 13 -39 72 -39 53 0 74 10 67 31
-15 40 32 624 80 981 18 136 33 246 34 245 1 -1 16 -83 34 -182 46 -264 108
-519 210 -855 38 -123 47 -162 49 -197 1 -14 53 -16 106 -4 30 6 47 37 27 50
-16 10 -88 469 -202 1276 -33 237 -62 445 -65 463 -6 30 -9 32 -47 32 -32 0
-39 3 -34 16 3 9 6 18 6 20 0 2 16 4 35 4 40 0 38 -5 58 146 13 96 16 104 60
162 26 33 47 67 47 74 0 21 -56 105 -77 116 -56 29 -299 41 -423 21z m280
-539 c0 -19 -7 -20 -110 -20 -103 0 -110 1 -110 20 0 19 7 20 110 20 103 0
110 -1 110 -20z"/>
<path d="M1780 990 c-25 -10 -45 -22 -45 -26 1 -28 17 -84 24 -84 20 0 205 79
219 94 20 20 11 23 -83 29 -53 4 -81 1 -115 -13z"/>
<path d="M1156 958 c-3 -13 -7 -34 -8 -48 l-3 -25 118 -3 c111 -2 122 0 115
26 -1 4 -17 12 -36 19 -19 6 -44 20 -55 31 -15 13 -39 20 -74 21 -47 2 -53 0
-57 -21z"/>
</g>
</svg>
